<svg width="720" height="720" xmlns="http://www.w3.org/2000/svg" xmlns:xlink="http://www.w3.org/1999/xlink" overflow="hidden"><defs><clipPath id="clip0"><rect x="280" y="0" width="720" height="720"/></clipPath></defs><g clip-path="url(#clip0)" transform="translate(-280 0)"><path d="M442.818 176.407 667.818 176.407 667.818 513.907 442.817 513.907Z" fill="#FFC000"/><path d="M557.339 166.406 780.464 166.406 780.464 503.906 557.339 503.906Z" fill="#D2D2D2"/><path d="M555.464 159.844 780.464 159.844 780.464 497.344 555.464 497.344Z" fill="#E6E6E6"/><path d="M574.351 215.625 761.714 215.625 761.714 216.562 574.351 216.562Z" fill="#D2D2D2"/><path d="M574.214 226.875 761.577 226.875 761.577 227.812 574.214 227.812Z" fill="#D2D2D2"/><path d="M574.351 238.125 761.714 238.125 761.714 239.062 574.351 239.062Z" fill="#D2D2D2"/><path d="M574.214 249.375 761.577 249.375 761.577 250.312 574.214 250.312Z" fill="#D2D2D2"/><path d="M574.351 260.625 761.714 260.625 761.714 261.562 574.351 261.562Z" fill="#D2D2D2"/><path d="M574.214 271.875 761.577 271.875 761.577 272.812 574.214 272.812Z" fill="#D2D2D2"/><path d="M574.351 283.125 761.714 283.125 761.714 284.062 574.351 284.062Z" fill="#D2D2D2"/><path d="M574.214 294.375 761.577 294.375 761.577 295.312 574.214 295.312Z" fill="#D2D2D2"/><path d="M574.351 305.625 761.714 305.625 761.714 306.562 574.351 306.562Z" fill="#D2D2D2"/><path d="M574.214 316.875 761.577 316.875 761.577 317.812 574.214 317.812Z" fill="#D2D2D2"/><path d="M574.351 328.125 761.714 328.125 761.714 329.062 574.351 329.062Z" fill="#D2D2D2"/><path d="M574.214 339.375 761.577 339.375 761.577 340.312 574.214 340.312Z" fill="#D2D2D2"/><path d="M574.351 350.625 761.714 350.625 761.714 351.562 574.351 351.562Z" fill="#D2D2D2"/><path d="M574.214 361.875 761.577 361.875 761.577 362.812 574.214 362.812Z" fill="#D2D2D2"/><path d="M574.351 373.125 761.714 373.125 761.714 374.062 574.351 374.062Z" fill="#D2D2D2"/><path d="M574.214 384.375 761.577 384.375 761.577 385.312 574.214 385.312Z" fill="#D2D2D2"/><path d="M574.351 395.625 761.714 395.625 761.714 396.562 574.351 396.562Z" fill="#D2D2D2"/><path d="M574.214 406.875 761.577 406.875 761.577 407.812 574.214 407.812Z" fill="#D2D2D2"/><path d="M574.351 418.125 761.714 418.125 761.714 419.062 574.351 419.062Z" fill="#D2D2D2"/><path d="M574.214 429.375 761.577 429.375 761.577 430.312 574.214 430.312Z" fill="#D2D2D2"/><path d="M574.351 440.625 761.714 440.625 761.714 441.562 574.351 441.562Z" fill="#D2D2D2"/><path d="M574.214 451.875 761.577 451.875 761.577 452.812 574.214 452.812Z" fill="#D2D2D2"/><path d="M574.351 463.125 761.714 463.125 761.714 464.062 574.351 464.062Z" fill="#D2D2D2"/><path d="M555.464 159.844 780.464 159.844 780.464 182.344 555.464 182.344Z" fill="#737373"/><path d="M594.839 171.108C594.839 174.215 592.32 176.733 589.214 176.733 586.107 176.733 583.589 174.215 583.589 171.108 583.589 168.001 586.107 165.483 589.214 165.483 592.32 165.483 594.839 168.001 594.839 171.108Z" fill="#505050"/><path d="M752.339 171.108C752.339 174.215 749.82 176.733 746.714 176.733 743.607 176.733 741.089 174.215 741.089 171.108 741.089 168.001 743.607 165.483 746.714 165.483 749.82 165.483 752.339 168.001 752.339 171.108Z" fill="#505050"/><path d="M613.589 222.656 836.714 222.656 836.714 560.156 613.589 560.156Z" fill="#D2D2D2"/><path d="M611.714 216.094 836.714 216.094 836.714 553.594 611.714 553.594Z" fill="#FFFFFF"/><path d="M837.182 554.062 611.245 554.062 611.245 215.625 837.182 215.625 837.182 554.062ZM612.182 553.125 836.245 553.125 836.245 216.562 612.182 216.562 612.182 553.125Z" fill="#F2F2F2"/><path d="M629.995 271.875 629.995 520.312 822.182 520.312 822.182 271.875 629.995 271.875ZM721.07 429.375 721.07 419.062 731.382 419.062 731.382 429.375 721.07 429.375ZM731.382 430.312 731.382 440.625 721.07 440.625 721.07 430.312 731.382 430.312ZM731.382 362.812 731.382 373.125 721.07 373.125 721.07 362.812 731.382 362.812ZM721.07 361.875 721.07 351.562 731.382 351.562 731.382 361.875 721.07 361.875ZM721.07 406.875 721.07 396.562 731.382 396.562 731.382 406.875 721.07 406.875ZM731.382 407.812 731.382 418.125 721.07 418.125 721.07 407.812 731.382 407.812ZM721.07 395.625 721.07 385.312 731.382 385.312 731.382 395.625 721.07 395.625ZM721.07 384.375 721.07 374.062 731.382 374.062 731.382 384.375 721.07 384.375ZM720.132 373.125 709.82 373.125 709.82 362.812 720.132 362.812 720.132 373.125ZM720.132 374.062 720.132 384.375 709.82 384.375 709.82 374.062 720.132 374.062ZM720.132 385.312 720.132 395.625 709.82 395.625 709.82 385.312 720.132 385.312ZM720.132 396.562 720.132 406.875 709.82 406.875 709.82 396.562 720.132 396.562ZM720.132 407.812 720.132 418.125 709.82 418.125 709.82 407.812 720.132 407.812ZM720.132 419.062 720.132 429.375 709.82 429.375 709.82 419.062 720.132 419.062ZM732.32 419.062 742.632 419.062 742.632 429.375 732.32 429.375 732.32 419.062ZM732.32 418.125 732.32 407.812 742.632 407.812 742.632 418.125 732.32 418.125ZM732.32 406.875 732.32 396.562 742.632 396.562 742.632 406.875 732.32 406.875ZM732.32 395.625 732.32 385.312 742.632 385.312 742.632 395.625 732.32 395.625ZM732.32 384.375 732.32 374.062 742.632 374.062 742.632 384.375 732.32 384.375ZM732.32 373.125 732.32 362.812 742.632 362.812 742.632 373.125 732.32 373.125ZM732.32 361.875 732.32 351.562 742.632 351.562 742.632 361.875 732.32 361.875ZM732.32 350.625 732.32 340.312 742.632 340.312 742.632 350.625 732.32 350.625ZM731.382 350.625 721.07 350.625 721.07 340.312 731.382 340.312 731.382 350.625ZM720.132 350.625 709.82 350.625 709.82 340.312 720.132 340.312 720.132 350.625ZM720.132 351.562 720.132 361.875 709.82 361.875 709.82 351.562 720.132 351.562ZM708.882 361.875 698.57 361.875 698.57 351.562 708.882 351.562 708.882 361.875ZM708.882 362.812 708.882 373.125 698.57 373.125 698.57 362.812 708.882 362.812ZM708.882 374.062 708.882 384.375 698.57 384.375 698.57 374.062 708.882 374.062ZM708.882 385.312 708.882 395.625 698.57 395.625 698.57 385.312 708.882 385.312ZM708.882 396.562 708.882 406.875 698.57 406.875 698.57 396.562 708.882 396.562ZM708.882 407.812 708.882 418.125 698.57 418.125 698.57 407.812 708.882 407.812ZM708.882 419.062 708.882 429.375 698.57 429.375 698.57 419.062 708.882 419.062ZM708.882 430.312 708.882 440.625 698.57 440.625 698.57 430.312 708.882 430.312ZM709.82 430.312 720.132 430.312 720.132 440.625 709.82 440.625 709.82 430.312ZM720.132 441.562 720.132 451.875 709.82 451.875 709.82 441.562 720.132 441.562ZM721.07 441.562 731.382 441.562 731.382 451.875 721.07 451.875 721.07 441.562ZM732.32 441.562 742.632 441.562 742.632 451.875 732.32 451.875 732.32 441.562ZM732.32 440.625 732.32 430.312 742.632 430.312 742.632 440.625 732.32 440.625ZM743.57 430.312 753.882 430.312 753.882 440.625 743.57 440.625 743.57 430.312ZM743.57 429.375 743.57 419.062 753.882 419.062 753.882 429.375 743.57 429.375ZM743.57 418.125 743.57 407.812 753.882 407.812 753.882 418.125 743.57 418.125ZM743.57 406.875 743.57 396.562 753.882 396.562 753.882 406.875 743.57 406.875ZM743.57 395.625 743.57 385.312 753.882 385.312 753.882 395.625 743.57 395.625ZM743.57 384.375 743.57 374.062 753.882 374.062 753.882 384.375 743.57 384.375ZM743.57 373.125 743.57 362.812 753.882 362.812 753.882 373.125 743.57 373.125ZM743.57 361.875 743.57 351.562 753.882 351.562 753.882 361.875 743.57 361.875ZM743.57 350.625 743.57 340.312 753.882 340.312 753.882 350.625 743.57 350.625ZM743.57 339.375 743.57 329.062 753.882 329.062 753.882 339.375 743.57 339.375ZM742.632 339.375 732.32 339.375 732.32 329.062 742.632 329.062 742.632 339.375ZM731.382 339.375 721.07 339.375 721.07 329.062 731.382 329.062 731.382 339.375ZM720.132 339.375 709.82 339.375 709.82 329.062 720.132 329.062 720.132 339.375ZM708.882 339.375 698.57 339.375 698.57 329.062 708.882 329.062 708.882 339.375ZM708.882 340.312 708.882 350.625 698.57 350.625 698.57 340.312 708.882 340.312ZM697.632 350.625 687.32 350.625 687.32 340.312 697.632 340.312 697.632 350.625ZM697.632 351.562 697.632 361.875 687.32 361.875 687.32 351.562 697.632 351.562ZM697.632 362.812 697.632 373.125 687.32 373.125 687.32 362.812 697.632 362.812ZM697.632 374.062 697.632 384.375 687.32 384.375 687.32 374.062 697.632 374.062ZM697.632 385.312 697.632 395.625 687.32 395.625 687.32 385.312 697.632 385.312ZM697.632 396.562 697.632 406.875 687.32 406.875 687.32 396.562 697.632 396.562ZM697.632 407.812 697.632 418.125 687.32 418.125 687.32 407.812 697.632 407.812ZM697.632 419.062 697.632 429.375 687.32 429.375 687.32 419.062 697.632 419.062ZM697.632 430.312 697.632 440.625 687.32 440.625 687.32 430.312 697.632 430.312ZM697.632 441.562 697.632 451.875 687.32 451.875 687.32 441.562 697.632 441.562ZM698.57 441.562 708.882 441.562 708.882 451.875 698.57 451.875 698.57 441.562ZM708.882 452.812 708.882 463.125 698.57 463.125 698.57 452.812 708.882 452.812ZM709.82 452.812 720.132 452.812 720.132 463.125 709.82 463.125 709.82 452.812ZM721.07 452.812 731.382 452.812 731.382 463.125 721.07 463.125 721.07 452.812ZM732.32 452.812 742.632 452.812 742.632 463.125 732.32 463.125 732.32 452.812ZM743.57 452.812 753.882 452.812 753.882 463.125 743.57 463.125 743.57 452.812ZM743.57 451.875 743.57 441.562 753.882 441.562 753.882 451.875 743.57 451.875ZM754.82 441.562 765.132 441.562 765.132 451.875 754.82 451.875 754.82 441.562ZM754.82 440.625 754.82 430.312 765.132 430.312 765.132 440.625 754.82 440.625ZM754.82 429.375 754.82 419.062 765.132 419.062 765.132 429.375 754.82 429.375ZM754.82 418.125 754.82 407.812 765.132 407.812 765.132 418.125 754.82 418.125ZM754.82 406.875 754.82 396.562 765.132 396.562 765.132 406.875 754.82 406.875ZM754.82 395.625 754.82 385.312 765.132 385.312 765.132 395.625 754.82 395.625ZM754.82 384.375 754.82 374.062 765.132 374.062 765.132 384.375 754.82 384.375ZM754.82 373.125 754.82 362.812 765.132 362.812 765.132 373.125 754.82 373.125ZM754.82 361.875 754.82 351.562 765.132 351.562 765.132 361.875 754.82 361.875ZM754.82 350.625 754.82 340.312 765.132 340.312 765.132 350.625 754.82 350.625ZM754.82 339.375 754.82 329.062 765.132 329.062 765.132 339.375 754.82 339.375ZM754.82 328.125 754.82 317.812 765.132 317.812 765.132 328.125 754.82 328.125ZM753.882 328.125 743.57 328.125 743.57 317.812 753.882 317.812 753.882 328.125ZM742.632 328.125 732.32 328.125 732.32 317.812 742.632 317.812 742.632 328.125ZM731.382 328.125 721.07 328.125 721.07 317.812 731.382 317.812 731.382 328.125ZM720.132 328.125 709.82 328.125 709.82 317.812 720.132 317.812 720.132 328.125ZM708.882 328.125 698.57 328.125 698.57 317.812 708.882 317.812 708.882 328.125ZM697.632 328.125 687.32 328.125 687.32 317.812 697.632 317.812 697.632 328.125ZM697.632 329.062 697.632 339.375 687.32 339.375 687.32 329.062 697.632 329.062ZM686.382 339.375 676.07 339.375 676.07 329.062 686.382 329.062 686.382 339.375ZM686.382 340.312 686.382 350.625 676.07 350.625 676.07 340.312 686.382 340.312ZM686.382 351.562 686.382 361.875 676.07 361.875 676.07 351.562 686.382 351.562ZM686.382 362.812 686.382 373.125 676.07 373.125 676.07 362.812 686.382 362.812ZM686.382 374.062 686.382 384.375 676.07 384.375 676.07 374.062 686.382 374.062ZM686.382 385.312 686.382 395.625 676.07 395.625 676.07 385.312 686.382 385.312ZM686.382 396.562 686.382 406.875 676.07 406.875 676.07 396.562 686.382 396.562ZM686.382 407.812 686.382 418.125 676.07 418.125 676.07 407.812 686.382 407.812ZM686.382 419.062 686.382 429.375 676.07 429.375 676.07 419.062 686.382 419.062ZM686.382 430.312 686.382 440.625 676.07 440.625 676.07 430.312 686.382 430.312ZM686.382 441.562 686.382 451.875 676.07 451.875 676.07 441.562 686.382 441.562ZM686.382 452.812 686.382 463.125 676.07 463.125 676.07 452.812 686.382 452.812ZM687.32 452.812 697.632 452.812 697.632 463.125 687.32 463.125 687.32 452.812ZM697.632 464.062 697.632 474.375 687.32 474.375 687.32 464.062 697.632 464.062ZM698.57 464.062 708.882 464.062 708.882 474.375 698.57 474.375 698.57 464.062ZM709.82 464.062 720.132 464.062 720.132 474.375 709.82 474.375 709.82 464.062ZM721.07 464.062 731.382 464.062 731.382 474.375 721.07 474.375 721.07 464.062ZM732.32 464.062 742.632 464.062 742.632 474.375 732.32 474.375 732.32 464.062ZM743.57 464.062 753.882 464.062 753.882 474.375 743.57 474.375 743.57 464.062ZM754.82 464.062 765.132 464.062 765.132 474.375 754.82 474.375 754.82 464.062ZM754.82 463.125 754.82 452.812 765.132 452.812 765.132 463.125 754.82 463.125ZM766.07 452.812 776.382 452.812 776.382 463.125 766.07 463.125 766.07 452.812ZM766.07 451.875 766.07 441.562 776.382 441.562 776.382 451.875 766.07 451.875ZM766.07 440.625 766.07 430.312 776.382 430.312 776.382 440.625 766.07 440.625ZM766.07 429.375 766.07 419.062 776.382 419.062 776.382 429.375 766.07 429.375ZM766.07 418.125 766.07 407.812 776.382 407.812 776.382 418.125 766.07 418.125ZM766.07 406.875 766.07 396.562 776.382 396.562 776.382 406.875 766.07 406.875ZM766.07 395.625 766.07 385.312 776.382 385.312 776.382 395.625 766.07 395.625ZM766.07 384.375 766.07 374.062 776.382 374.062 776.382 384.375 766.07 384.375ZM766.07 373.125 766.07 362.812 776.382 362.812 776.382 373.125 766.07 373.125ZM766.07 361.875 766.07 351.562 776.382 351.562 776.382 361.875 766.07 361.875ZM766.07 350.625 766.07 340.312 776.382 340.312 776.382 350.625 766.07 350.625ZM766.07 339.375 766.07 329.062 776.382 329.062 776.382 339.375 766.07 339.375ZM766.07 328.125 766.07 317.812 776.382 317.812 776.382 328.125 766.07 328.125ZM766.07 316.875 766.07 306.562 776.382 306.562 776.382 316.875 766.07 316.875ZM765.132 316.875 754.82 316.875 754.82 306.562 765.132 306.562 765.132 316.875ZM753.882 316.875 743.57 316.875 743.57 306.562 753.882 306.562 753.882 316.875ZM742.632 316.875 732.32 316.875 732.32 306.562 742.632 306.562 742.632 316.875ZM731.382 316.875 721.07 316.875 721.07 306.562 731.382 306.562 731.382 316.875ZM720.132 316.875 709.82 316.875 709.82 306.562 720.132 306.562 720.132 316.875ZM708.882 316.875 698.57 316.875 698.57 306.562 708.882 306.562 708.882 316.875ZM697.632 316.875 687.32 316.875 687.32 306.562 697.632 306.562 697.632 316.875ZM686.382 316.875 676.07 316.875 676.07 306.562 686.382 306.562 686.382 316.875ZM686.382 317.812 686.382 328.125 676.07 328.125 676.07 317.812 686.382 317.812ZM675.132 328.125 664.82 328.125 664.82 317.812 675.132 317.812 675.132 328.125ZM675.132 329.062 675.132 339.375 664.82 339.375 664.82 329.062 675.132 329.062ZM675.132 340.312 675.132 350.625 664.82 350.625 664.82 340.312 675.132 340.312ZM675.132 351.562 675.132 361.875 664.82 361.875 664.82 351.562 675.132 351.562ZM675.132 362.812 675.132 373.125 664.82 373.125 664.82 362.812 675.132 362.812ZM675.132 374.062 675.132 384.375 664.82 384.375 664.82 374.062 675.132 374.062ZM675.132 385.312 675.132 395.625 664.82 395.625 664.82 385.312 675.132 385.312ZM675.132 396.562 675.132 406.875 664.82 406.875 664.82 396.562 675.132 396.562ZM675.132 407.812 675.132 418.125 664.82 418.125 664.82 407.812 675.132 407.812ZM675.132 419.062 675.132 429.375 664.82 429.375 664.82 419.062 675.132 419.062ZM675.132 430.312 675.132 440.625 664.82 440.625 664.82 430.312 675.132 430.312ZM675.132 441.562 675.132 451.875 664.82 451.875 664.82 441.562 675.132 441.562ZM675.132 452.812 675.132 463.125 664.82 463.125 664.82 452.812 675.132 452.812ZM675.132 464.062 675.132 474.375 664.82 474.375 664.82 464.062 675.132 464.062ZM676.07 464.062 686.382 464.062 686.382 474.375 676.07 474.375 676.07 464.062ZM686.382 475.312 686.382 485.625 676.07 485.625 676.07 475.312 686.382 475.312ZM687.32 475.312 697.632 475.312 697.632 485.625 687.32 485.625 687.32 475.312ZM698.57 475.312 708.882 475.312 708.882 485.625 698.57 485.625 698.57 475.312ZM709.82 475.312 720.132 475.312 720.132 485.625 709.82 485.625 709.82 475.312ZM721.07 475.312 731.382 475.312 731.382 485.625 721.07 485.625 721.07 475.312ZM732.32 475.312 742.632 475.312 742.632 485.625 732.32 485.625 732.32 475.312ZM743.57 475.312 753.882 475.312 753.882 485.625 743.57 485.625 743.57 475.312ZM754.82 475.312 765.132 475.312 765.132 485.625 754.82 485.625 754.82 475.312ZM766.07 475.312 776.382 475.312 776.382 485.625 766.07 485.625 766.07 475.312ZM766.07 474.375 766.07 464.062 776.382 464.062 776.382 474.375 766.07 474.375ZM777.32 464.062 787.632 464.062 787.632 474.375 777.32 474.375 777.32 464.062ZM777.32 463.125 777.32 452.812 787.632 452.812 787.632 463.125 777.32 463.125ZM777.32 451.875 777.32 441.562 787.632 441.562 787.632 451.875 777.32 451.875ZM777.32 440.625 777.32 430.312 787.632 430.312 787.632 440.625 777.32 440.625ZM777.32 429.375 777.32 419.062 787.632 419.062 787.632 429.375 777.32 429.375ZM777.32 418.125 777.32 407.812 787.632 407.812 787.632 418.125 777.32 418.125ZM777.32 406.875 777.32 396.562 787.632 396.562 787.632 406.875 777.32 406.875ZM777.32 395.625 777.32 385.312 787.632 385.312 787.632 395.625 777.32 395.625ZM777.32 384.375 777.32 374.062 787.632 374.062 787.632 384.375 777.32 384.375ZM777.32 373.125 777.32 362.812 787.632 362.812 787.632 373.125 777.32 373.125ZM777.32 361.875 777.32 351.562 787.632 351.562 787.632 361.875 777.32 361.875ZM777.32 350.625 777.32 340.312 787.632 340.312 787.632 350.625 777.32 350.625ZM777.32 339.375 777.32 329.062 787.632 329.062 787.632 339.375 777.32 339.375ZM777.32 328.125 777.32 317.812 787.632 317.812 787.632 328.125 777.32 328.125ZM777.32 316.875 777.32 306.562 787.632 306.562 787.632 316.875 777.32 316.875ZM777.32 305.625 777.32 295.312 787.632 295.312 787.632 305.625 777.32 305.625ZM776.382 305.625 766.07 305.625 766.07 295.312 776.382 295.312 776.382 305.625ZM765.132 305.625 754.82 305.625 754.82 295.312 765.132 295.312 765.132 305.625ZM753.882 305.625 743.57 305.625 743.57 295.312 753.882 295.312 753.882 305.625ZM742.632 305.625 732.32 305.625 732.32 295.312 742.632 295.312 742.632 305.625ZM731.382 305.625 721.07 305.625 721.07 295.312 731.382 295.312 731.382 305.625ZM720.132 305.625 709.82 305.625 709.82 295.312 720.132 295.312 720.132 305.625ZM708.882 305.625 698.57 305.625 698.57 295.312 708.882 295.312 708.882 305.625ZM697.632 305.625 687.32 305.625 687.32 295.312 697.632 295.312 697.632 305.625ZM686.382 305.625 676.07 305.625 676.07 295.312 686.382 295.312 686.382 305.625ZM675.132 305.625 664.82 305.625 664.82 295.312 675.132 295.312 675.132 305.625ZM675.132 306.562 675.132 316.875 664.82 316.875 664.82 306.562 675.132 306.562ZM663.882 316.875 653.57 316.875 653.57 306.562 663.882 306.562 663.882 316.875ZM663.882 317.812 663.882 328.125 653.57 328.125 653.57 317.812 663.882 317.812ZM663.882 329.062 663.882 339.375 653.57 339.375 653.57 329.062 663.882 329.062ZM663.882 340.312 663.882 350.625 653.57 350.625 653.57 340.312 663.882 340.312ZM663.882 351.562 663.882 361.875 653.57 361.875 653.57 351.562 663.882 351.562ZM663.882 362.812 663.882 373.125 653.57 373.125 653.57 362.812 663.882 362.812ZM663.882 374.062 663.882 384.375 653.57 384.375 653.57 374.062 663.882 374.062ZM663.882 385.312 663.882 395.625 653.57 395.625 653.57 385.312 663.882 385.312ZM663.882 396.562 663.882 406.875 653.57 406.875 653.57 396.562 663.882 396.562ZM663.882 407.812 663.882 418.125 653.57 418.125 653.57 407.812 663.882 407.812ZM663.882 419.062 663.882 429.375 653.57 429.375 653.57 419.062 663.882 419.062ZM663.882 430.312 663.882 440.625 653.57 440.625 653.57 430.312 663.882 430.312ZM663.882 441.562 663.882 451.875 653.57 451.875 653.57 441.562 663.882 441.562ZM663.882 452.812 663.882 463.125 653.57 463.125 653.57 452.812 663.882 452.812ZM663.882 464.062 663.882 474.375 653.57 474.375 653.57 464.062 663.882 464.062ZM663.882 475.312 663.882 485.625 653.57 485.625 653.57 475.312 663.882 475.312ZM664.82 475.312 675.132 475.312 675.132 485.625 664.82 485.625 664.82 475.312ZM675.132 486.562 675.132 496.875 664.82 496.875 664.82 486.562 675.132 486.562ZM676.07 486.562 686.382 486.562 686.382 496.875 676.07 496.875 676.07 486.562ZM687.32 486.562 697.632 486.562 697.632 496.875 687.32 496.875 687.32 486.562ZM698.57 486.562 708.882 486.562 708.882 496.875 698.57 496.875 698.57 486.562ZM709.82 486.562 720.132 486.562 720.132 496.875 709.82 496.875 709.82 486.562ZM721.07 486.562 731.382 486.562 731.382 496.875 721.07 496.875 721.07 486.562ZM732.32 486.562 742.632 486.562 742.632 496.875 732.32 496.875 732.32 486.562ZM743.57 486.562 753.882 486.562 753.882 496.875 743.57 496.875 743.57 486.562ZM754.82 486.562 765.132 486.562 765.132 496.875 754.82 496.875 754.82 486.562ZM766.07 486.562 776.382 486.562 776.382 496.875 766.07 496.875 766.07 486.562ZM777.32 486.562 787.632 486.562 787.632 496.875 777.32 496.875 777.32 486.562ZM777.32 485.625 777.32 475.312 787.632 475.312 787.632 485.625 777.32 485.625ZM788.57 475.312 798.882 475.312 798.882 485.625 788.57 485.625 788.57 475.312ZM788.57 474.375 788.57 464.062 798.882 464.062 798.882 474.375 788.57 474.375ZM788.57 463.125 788.57 452.812 798.882 452.812 798.882 463.125 788.57 463.125ZM788.57 451.875 788.57 441.562 798.882 441.562 798.882 451.875 788.57 451.875ZM788.57 440.625 788.57 430.312 798.882 430.312 798.882 440.625 788.57 440.625ZM788.57 429.375 788.57 419.062 798.882 419.062 798.882 429.375 788.57 429.375ZM788.57 418.125 788.57 407.812 798.882 407.812 798.882 418.125 788.57 418.125ZM788.57 406.875 788.57 396.562 798.882 396.562 798.882 406.875 788.57 406.875ZM788.57 395.625 788.57 385.312 798.882 385.312 798.882 395.625 788.57 395.625ZM788.57 384.375 788.57 374.062 798.882 374.062 798.882 384.375 788.57 384.375ZM788.57 373.125 788.57 362.812 798.882 362.812 798.882 373.125 788.57 373.125ZM788.57 361.875 788.57 351.562 798.882 351.562 798.882 361.875 788.57 361.875ZM788.57 350.625 788.57 340.312 798.882 340.312 798.882 350.625 788.57 350.625ZM788.57 339.375 788.57 329.062 798.882 329.062 798.882 339.375 788.57 339.375ZM788.57 328.125 788.57 317.812 798.882 317.812 798.882 328.125 788.57 328.125ZM788.57 316.875 788.57 306.562 798.882 306.562 798.882 316.875 788.57 316.875ZM788.57 305.625 788.57 295.312 798.882 295.312 798.882 305.625 788.57 305.625ZM788.57 294.375 788.57 284.062 798.882 284.062 798.882 294.375 788.57 294.375ZM787.632 294.375 777.32 294.375 777.32 284.062 787.632 284.062 787.632 294.375ZM776.382 294.375 766.07 294.375 766.07 284.062 776.382 284.062 776.382 294.375ZM765.132 294.375 754.82 294.375 754.82 284.062 765.132 284.062 765.132 294.375ZM753.882 294.375 743.57 294.375 743.57 284.062 753.882 284.062 753.882 294.375ZM742.632 294.375 732.32 294.375 732.32 284.062 742.632 284.062 742.632 294.375ZM731.382 294.375 721.07 294.375 721.07 284.062 731.382 284.062 731.382 294.375ZM720.132 294.375 709.82 294.375 709.82 284.062 720.132 284.062 720.132 294.375ZM708.882 294.375 698.57 294.375 698.57 284.062 708.882 284.062 708.882 294.375ZM697.632 294.375 687.32 294.375 687.32 284.062 697.632 284.062 697.632 294.375ZM686.382 294.375 676.07 294.375 676.07 284.062 686.382 284.062 686.382 294.375ZM675.132 294.375 664.82 294.375 664.82 284.062 675.132 284.062 675.132 294.375ZM663.882 294.375 653.57 294.375 653.57 284.062 663.882 284.062 663.882 294.375ZM663.882 295.312 663.882 305.625 653.57 305.625 653.57 295.312 663.882 295.312ZM652.632 305.625 642.32 305.625 642.32 295.312 652.632 295.312 652.632 305.625ZM652.632 306.562 652.632 316.875 642.32 316.875 642.32 306.562 652.632 306.562ZM652.632 317.812 652.632 328.125 642.32 328.125 642.32 317.812 652.632 317.812ZM652.632 329.062 652.632 339.375 642.32 339.375 642.32 329.062 652.632 329.062ZM652.632 340.312 652.632 350.625 642.32 350.625 642.32 340.312 652.632 340.312ZM652.632 351.562 652.632 361.875 642.32 361.875 642.32 351.562 652.632 351.562ZM652.632 362.812 652.632 373.125 642.32 373.125 642.32 362.812 652.632 362.812ZM652.632 374.062 652.632 384.375 642.32 384.375 642.32 374.062 652.632 374.062ZM652.632 385.312 652.632 395.625 642.32 395.625 642.32 385.312 652.632 385.312ZM652.632 396.562 652.632 406.875 642.32 406.875 642.32 396.562 652.632 396.562ZM652.632 407.812 652.632 418.125 642.32 418.125 642.32 407.812 652.632 407.812ZM652.632 419.062 652.632 429.375 642.32 429.375 642.32 419.062 652.632 419.062ZM652.632 430.312 652.632 440.625 642.32 440.625 642.32 430.312 652.632 430.312ZM652.632 441.562 652.632 451.875 642.32 451.875 642.32 441.562 652.632 441.562ZM652.632 452.812 652.632 463.125 642.32 463.125 642.32 452.812 652.632 452.812ZM652.632 464.062 652.632 474.375 642.32 474.375 642.32 464.062 652.632 464.062ZM652.632 475.312 652.632 485.625 642.32 485.625 642.32 475.312 652.632 475.312ZM652.632 486.562 652.632 496.875 642.32 496.875 642.32 486.562 652.632 486.562ZM653.57 486.562 663.882 486.562 663.882 496.875 653.57 496.875 653.57 486.562ZM663.882 497.812 663.882 508.125 653.57 508.125 653.57 497.812 663.882 497.812ZM664.82 497.812 675.132 497.812 675.132 508.125 664.82 508.125 664.82 497.812ZM676.07 497.812 686.382 497.812 686.382 508.125 676.07 508.125 676.07 497.812ZM687.32 497.812 697.632 497.812 697.632 508.125 687.32 508.125 687.32 497.812ZM698.57 497.812 708.882 497.812 708.882 508.125 698.57 508.125 698.57 497.812ZM709.82 497.812 720.132 497.812 720.132 508.125 709.82 508.125 709.82 497.812ZM721.07 497.812 731.382 497.812 731.382 508.125 721.07 508.125 721.07 497.812ZM732.32 497.812 742.632 497.812 742.632 508.125 732.32 508.125 732.32 497.812ZM743.57 497.812 753.882 497.812 753.882 508.125 743.57 508.125 743.57 497.812ZM754.82 497.812 765.132 497.812 765.132 508.125 754.82 508.125 754.82 497.812ZM766.07 497.812 776.382 497.812 776.382 508.125 766.07 508.125 766.07 497.812ZM777.32 497.812 787.632 497.812 787.632 508.125 777.32 508.125 777.32 497.812ZM788.57 497.812 798.882 497.812 798.882 508.125 788.57 508.125 788.57 497.812ZM788.57 496.875 788.57 486.562 798.882 486.562 798.882 496.875 788.57 496.875ZM799.82 486.562 810.132 486.562 810.132 496.875 799.82 496.875 799.82 486.562ZM799.82 485.625 799.82 475.312 810.132 475.312 810.132 485.625 799.82 485.625ZM799.82 474.375 799.82 464.062 810.132 464.062 810.132 474.375 799.82 474.375ZM799.82 463.125 799.82 452.812 810.132 452.812 810.132 463.125 799.82 463.125ZM799.82 451.875 799.82 441.562 810.132 441.562 810.132 451.875 799.82 451.875ZM799.82 440.625 799.82 430.312 810.132 430.312 810.132 440.625 799.82 440.625ZM799.82 429.375 799.82 419.062 810.132 419.062 810.132 429.375 799.82 429.375ZM799.82 418.125 799.82 407.812 810.132 407.812 810.132 418.125 799.82 418.125ZM799.82 406.875 799.82 396.562 810.132 396.562 810.132 406.875 799.82 406.875ZM799.82 395.625 799.82 385.312 810.132 385.312 810.132 395.625 799.82 395.625ZM799.82 384.375 799.82 374.062 810.132 374.062 810.132 384.375 799.82 384.375ZM799.82 373.125 799.82 362.812 810.132 362.812 810.132 373.125 799.82 373.125ZM799.82 361.875 799.82 351.562 810.132 351.562 810.132 361.875 799.82 361.875ZM799.82 350.625 799.82 340.312 810.132 340.312 810.132 350.625 799.82 350.625ZM799.82 339.375 799.82 329.062 810.132 329.062 810.132 339.375 799.82 339.375ZM799.82 328.125 799.82 317.812 810.132 317.812 810.132 328.125 799.82 328.125ZM799.82 316.875 799.82 306.562 810.132 306.562 810.132 316.875 799.82 316.875ZM799.82 305.625 799.82 295.312 810.132 295.312 810.132 305.625 799.82 305.625ZM799.82 294.375 799.82 284.062 810.132 284.062 810.132 294.375 799.82 294.375ZM799.82 283.125 799.82 272.812 810.132 272.812 810.132 283.125 799.82 283.125ZM798.882 283.125 788.57 283.125 788.57 272.812 798.882 272.812 798.882 283.125ZM787.632 283.125 777.32 283.125 777.32 272.812 787.632 272.812 787.632 283.125ZM776.382 283.125 766.07 283.125 766.07 272.812 776.382 272.812 776.382 283.125ZM765.132 283.125 754.82 283.125 754.82 272.812 765.132 272.812 765.132 283.125ZM753.882 283.125 743.57 283.125 743.57 272.812 753.882 272.812 753.882 283.125ZM742.632 283.125 732.32 283.125 732.32 272.812 742.632 272.812 742.632 283.125ZM731.382 283.125 721.07 283.125 721.07 272.812 731.382 272.812 731.382 283.125ZM720.132 283.125 709.82 283.125 709.82 272.812 720.132 272.812 720.132 283.125ZM708.882 283.125 698.57 283.125 698.57 272.812 708.882 272.812 708.882 283.125ZM697.632 283.125 687.32 283.125 687.32 272.812 697.632 272.812 697.632 283.125ZM686.382 283.125 676.07 283.125 676.07 272.812 686.382 272.812 686.382 283.125ZM675.132 283.125 664.82 283.125 664.82 272.812 675.132 272.812 675.132 283.125ZM663.882 283.125 653.57 283.125 653.57 272.812 663.882 272.812 663.882 283.125ZM652.632 283.125 642.32 283.125 642.32 272.812 652.632 272.812 652.632 283.125ZM652.632 284.062 652.632 294.375 642.32 294.375 642.32 284.062 652.632 284.062ZM641.382 294.375 630.932 294.375 630.932 284.062 641.381 284.062 641.381 294.375ZM630.932 295.312 641.381 295.312 641.381 305.625 630.932 305.625 630.932 295.312ZM641.382 306.562 641.382 316.875 630.932 316.875 630.932 306.562 641.382 306.562ZM630.932 317.812 641.381 317.812 641.381 328.125 630.932 328.125 630.932 317.812ZM641.382 329.062 641.382 339.375 630.932 339.375 630.932 329.062 641.382 329.062ZM630.932 340.312 641.381 340.312 641.381 350.625 630.932 350.625 630.932 340.312ZM641.382 351.562 641.382 361.875 630.932 361.875 630.932 351.562 641.382 351.562ZM630.932 362.812 641.381 362.812 641.381 373.125 630.932 373.125 630.932 362.812ZM641.382 374.062 641.382 384.375 630.932 384.375 630.932 374.062 641.382 374.062ZM630.932 385.312 641.381 385.312 641.381 395.625 630.932 395.625 630.932 385.312ZM641.382 396.562 641.382 406.875 630.932 406.875 630.932 396.562 641.382 396.562ZM630.932 407.812 641.381 407.812 641.381 418.125 630.932 418.125 630.932 407.812ZM641.382 419.062 641.382 429.375 630.932 429.375 630.932 419.062 641.382 419.062ZM630.932 430.312 641.381 430.312 641.381 440.625 630.932 440.625 630.932 430.312ZM641.382 441.562 641.382 451.875 630.932 451.875 630.932 441.562 641.382 441.562ZM630.932 452.812 641.381 452.812 641.381 463.125 630.932 463.125 630.932 452.812ZM641.382 464.062 641.382 474.375 630.932 474.375 630.932 464.062 641.382 464.062ZM630.932 475.312 641.381 475.312 641.381 485.625 630.932 485.625 630.932 475.312ZM641.382 486.562 641.382 496.875 630.932 496.875 630.932 486.562 641.382 486.562ZM630.932 497.812 641.381 497.812 641.381 508.125 630.932 508.125 630.932 497.812ZM642.32 497.812 652.632 497.812 652.632 508.125 642.32 508.125 642.32 497.812ZM652.632 509.062 652.632 519.375 642.32 519.375 642.32 509.062 652.632 509.062ZM653.57 509.062 663.882 509.062 663.882 519.375 653.57 519.375 653.57 509.062ZM664.82 509.062 675.132 509.062 675.132 519.375 664.82 519.375 664.82 509.062ZM676.07 509.062 686.382 509.062 686.382 519.375 676.07 519.375 676.07 509.062ZM687.32 509.062 697.632 509.062 697.632 519.375 687.32 519.375 687.32 509.062ZM698.57 509.062 708.882 509.062 708.882 519.375 698.57 519.375 698.57 509.062ZM709.82 509.062 720.132 509.062 720.132 519.375 709.82 519.375 709.82 509.062ZM721.07 509.062 731.382 509.062 731.382 519.375 721.07 519.375 721.07 509.062ZM732.32 509.062 742.632 509.062 742.632 519.375 732.32 519.375 732.32 509.062ZM743.57 509.062 753.882 509.062 753.882 519.375 743.57 519.375 743.57 509.062ZM754.82 509.062 765.132 509.062 765.132 519.375 754.82 519.375 754.82 509.062ZM766.07 509.062 776.382 509.062 776.382 519.375 766.07 519.375 766.07 509.062ZM777.32 509.062 787.632 509.062 787.632 519.375 777.32 519.375 777.32 509.062ZM788.57 509.062 798.882 509.062 798.882 519.375 788.57 519.375 788.57 509.062ZM799.82 509.062 810.132 509.062 810.132 519.375 799.82 519.375 799.82 509.062ZM799.82 508.125 799.82 497.812 810.132 497.812 810.132 508.125 799.82 508.125ZM811.07 497.812 821.246 497.812 821.246 508.125 811.07 508.125 811.07 497.812ZM811.07 496.875 811.07 486.562 821.246 486.562 821.246 496.875 811.07 496.875ZM821.245 485.625 811.069 485.625 811.069 475.312 821.245 475.312 821.245 485.625ZM811.07 474.375 811.07 464.062 821.246 464.062 821.246 474.375 811.07 474.375ZM821.245 463.125 811.069 463.125 811.069 452.812 821.245 452.812 821.245 463.125ZM811.07 451.875 811.07 441.562 821.246 441.562 821.246 451.875 811.07 451.875ZM821.245 440.625 811.069 440.625 811.069 430.312 821.245 430.312 821.245 440.625ZM811.07 429.375 811.07 419.062 821.246 419.062 821.246 429.375 811.07 429.375ZM821.245 418.125 811.069 418.125 811.069 407.812 821.245 407.812 821.245 418.125ZM811.07 406.875 811.07 396.562 821.246 396.562 821.246 406.875 811.07 406.875ZM821.245 395.625 811.069 395.625 811.069 385.312 821.245 385.312 821.245 395.625ZM811.07 384.375 811.07 374.062 821.246 374.062 821.246 384.375 811.07 384.375ZM821.245 373.125 811.069 373.125 811.069 362.812 821.245 362.812 821.245 373.125ZM811.07 361.875 811.07 351.562 821.246 351.562 821.246 361.875 811.07 361.875ZM821.245 350.625 811.069 350.625 811.069 340.312 821.245 340.312 821.245 350.625ZM811.07 339.375 811.07 329.062 821.246 329.062 821.246 339.375 811.07 339.375ZM821.245 328.125 811.069 328.125 811.069 317.812 821.245 317.812 821.245 328.125ZM811.07 316.875 811.07 306.562 821.246 306.562 821.246 316.875 811.07 316.875ZM821.245 305.625 811.069 305.625 811.069 295.312 821.245 295.312 821.245 305.625ZM811.07 294.375 811.07 284.062 821.246 284.062 821.246 294.375 811.07 294.375ZM821.245 283.125 811.069 283.125 811.069 272.812 821.245 272.812 821.245 283.125ZM641.382 272.812 641.382 283.125 630.932 283.125 630.932 272.812 641.382 272.812ZM630.932 509.062 641.381 509.062 641.381 519.375 630.932 519.375 630.932 509.062ZM811.07 519.375 811.07 509.062 821.246 509.062 821.246 519.375 811.07 519.375Z" fill="#F2F2F2"/><path d="M611.714 216.094 836.714 216.094 836.714 238.594 611.714 238.594Z" fill="#FFC000"/><path d="M652.964 227.827C652.964 230.933 650.445 233.452 647.339 233.452 644.232 233.452 641.714 230.933 641.714 227.827 641.714 224.72 644.232 222.202 647.339 222.202 650.445 222.202 652.964 224.72 652.964 227.827Z" fill="#FFFFFF"/><path d="M810.464 227.827C810.464 230.933 807.945 233.452 804.839 233.452 801.732 233.452 799.214 230.933 799.214 227.827 799.214 224.72 801.732 222.202 804.839 222.202 807.945 222.202 810.464 224.72 810.464 227.827Z" fill="#FFFFFF"/><path d="M737.463 530.249 724.029 516.815 725.52 515.323 715.113 504.916 719.588 500.441 677.803 458.656C676.155 460.303 676.155 462.974 677.803 464.622L713.622 500.441 712.13 501.933 605.215 395.017 584.795 381.557 584.303 382.049 580.362 378.107 579.362 379.107 583.303 383.048 582.806 383.546 596.265 403.966 716.57 524.273 718.061 522.781 731.495 536.215 737.463 530.249Z" fill="#D2D2D2"/><path d="M714.702 511.857 720.669 505.891 737.457 522.679 731.49 528.645Z" fill="#737373"/><path d="M725.52 507.768 716.57 516.717 596.265 396.412C596.265 396.412 596.51 392.812 599.023 390.3 601.536 387.787 605.214 387.462 605.214 387.462L725.52 507.768Z" fill="#FFC000"/><path d="M579.358 371.542 580.358 370.542 586.136 376.321 585.136 377.32Z" fill="#505050"/><path d="M719.587 492.887 677.802 451.101C676.154 452.749 676.154 455.419 677.802 457.067L713.621 492.887 712.144 494.364 709.138 491.358 700.154 500.341 706.121 506.307 719.587 492.887Z" fill="#737373"/><path d="M582.806 375.991 596.265 396.412 605.215 387.462 584.795 374.003Z" fill="#737373"/><path d="M501.507 276.225 499.722 269.895 497.944 276.225 493.392 292.395 493.392 482.955 494.802 482.955 494.802 496.23 504.642 496.23 504.642 482.955 506.052 482.955 506.052 292.395Z" fill="#737373"/><path d="M490.134 474.77 499.977 474.77 499.977 491.809 490.134 491.809Z" fill="#FFC000"/><path d="M501.384 478.535 488.727 478.535 488.727 458.096C488.727 458.096 491.094 455.506 495.055 455.506 499.017 455.506 501.384 458.103 501.384 458.103L501.384 478.535Z" fill="#F2F2F2"/><path d="M501.384 458.114 488.727 458.114 488.727 287.98C488.727 287.976 488.73 287.973 488.735 287.973L501.376 287.973C501.38 287.973 501.384 287.976 501.384 287.98L501.384 458.114Z" fill="#505050"/><path d="M495.139 288.422C495.139 290.17 496.473 291.138 498.22 291.138 499.967 291.138 501.384 289.721 501.384 287.974L496.836 271.802 495.048 269.837C495.045 269.834 495.04 269.834 495.037 269.837L493.277 271.802 488.728 287.973C488.728 289.721 490.145 291.137 491.892 291.137 493.64 291.137 495.139 290.169 495.139 288.422L495.139 288.422Z" fill="#FFFFFF"/><path d="M495.056 265.474 493.276 271.802 496.836 271.802Z" fill="#505050"/><path d="M523.256 276.225 521.472 269.895 519.694 276.225 515.142 292.395 515.142 482.955 516.552 482.955 516.552 496.23 526.392 496.23 526.392 482.955 527.802 482.955 527.802 292.395Z" fill="#737373"/><path d="M511.931 474.77 521.775 474.77 521.775 491.809 511.931 491.809Z" fill="#F2F2F2"/><path d="M523.181 478.535 510.525 478.535 510.525 458.103C510.525 458.103 513.205 455.906 517.03 455.906 520.855 455.906 523.182 458.11 523.182 458.11L523.181 478.535Z" fill="#505050"/><path d="M523.181 458.114 510.525 458.114 510.525 287.98C510.525 287.976 510.528 287.973 510.533 287.973L523.174 287.973C523.178 287.973 523.182 287.976 523.182 287.98L523.181 458.114Z" fill="#D2D2D2"/><path d="M518.633 271.802 516.848 270.061C516.845 270.059 516.84 270.059 516.837 270.061L515.073 271.802 510.525 287.974C510.525 289.721 511.941 291.138 513.689 291.138 515.392 291.138 516.782 289.792 516.85 288.105 516.853 288.034 516.852 288.034 516.855 288.105 516.924 289.792 518.313 291.138 520.016 291.138 521.764 291.138 523.181 289.721 523.181 287.974L518.633 271.802Z" fill="#FFFFFF"/><path d="M516.853 265.474 515.073 271.802 518.633 271.802Z" fill="#505050"/><path d="M475.384 283.081 484.002 274.463C481.44 271.901 481.44 267.745 484.002 265.183L475.385 256.565C471.168 256.557 468.522 264.88 468.468 269.607 468.411 274.477 471.367 283.607 475.384 283.081Z" fill="#FFFFFF"/><path d="M475.384 256.564 473.395 254.575C464.975 262.995 464.975 276.648 473.395 285.069L475.384 283.08C468.062 275.759 468.062 263.886 475.384 256.564Z" fill="#505050"/><path d="M524.822 223.031 512.634 223.031C512.634 226.655 509.696 229.594 506.072 229.594L506.072 241.781C509.167 245.156 517.6 240.562 521.017 236.956 524.201 233.596 527.667 225.756 524.822 223.031Z" fill="#FFFFFF"/><path d="M506.072 241.781 506.072 244.594C517.98 244.594 527.634 234.94 527.634 223.031L524.822 223.031C524.822 233.387 516.426 241.781 506.072 241.781Z" fill="#505050"/><path d="M468.516 324.491 456.328 324.491C456.328 328.115 453.389 331.054 449.766 331.054L449.766 343.241C452.568 346.406 461.06 341.964 464.468 338.456 467.747 335.08 471.517 327.956 468.516 324.491Z" fill="#FFFFFF"/><path d="M449.766 343.241 449.766 346.054C461.674 346.054 471.328 336.4 471.328 324.491L468.516 324.491C468.516 334.846 460.121 343.241 449.766 343.241Z" fill="#505050"/></g></svg>